<svg width="20" height="21" viewBox="0 0 20 21" fill="none" xmlns="http://www.w3.org/2000/svg">
<g clip-path="url(#clip0_102_128)">
<path d="M18.1999 4.6498L17.8745 5.56476C17.8606 5.60394 17.833 5.635 17.7982 5.65066L16.9853 6.01691C16.8704 6.06867 16.8704 6.25164 16.9853 6.30335L17.7982 6.6696C17.833 6.68527 17.8606 6.71632 17.8745 6.7555L18.1999 7.67046C18.2459 7.79972 18.4084 7.79972 18.4544 7.67046L18.7798 6.7555C18.7937 6.71632 18.8213 6.68527 18.8561 6.6696L19.669 6.30335C19.7838 6.2516 19.7838 6.06863 19.669 6.01691L18.8561 5.65066C18.8213 5.635 18.7937 5.60394 18.7798 5.56476L18.4544 4.6498C18.4084 4.52054 18.2459 4.52054 18.1999 4.6498V4.6498Z" fill="#121212"/>
<path d="M14.1598 0.818628L13.9184 1.4973C13.9081 1.52636 13.8877 1.54937 13.8618 1.56101L13.2588 1.83269C13.1736 1.87109 13.1736 2.00679 13.2588 2.04519L13.8618 2.31687C13.8877 2.32851 13.9081 2.35152 13.9184 2.38058L14.1598 3.05929C14.1939 3.15519 14.3145 3.15519 14.3486 3.05929L14.59 2.38058C14.6003 2.35152 14.6208 2.32851 14.6466 2.31687L15.2496 2.04519C15.3348 2.00679 15.3348 1.87109 15.2496 1.83269L14.6466 1.56101C14.6208 1.54937 14.6003 1.52636 14.59 1.4973L14.3486 0.818628C14.3145 0.722729 14.1939 0.722729 14.1598 0.818628V0.818628Z" fill="#121212"/>
<path d="M0.254512 4.07161C0.163474 3.6898 0.399191 3.30648 0.781 3.21545C1.16281 3.12441 1.54613 3.36013 1.63716 3.74193C1.7282 4.12374 1.49248 4.50706 1.11068 4.5981C0.728868 4.68913 0.34555 4.45342 0.254512 4.07161Z" fill="#121212"/>
<path d="M17.5981 3.00698C17.4288 3.00698 17.2916 2.86976 17.2916 2.7005C17.2916 2.53123 17.4288 2.39401 17.5981 2.39401C17.7673 2.39401 17.9045 2.53123 17.9045 2.7005C17.9045 2.86976 17.7673 3.00698 17.5981 3.00698Z" fill="#121212"/>
<path d="M2.47392 6.75951C2.83825 5.61733 3.48356 4.62721 4.34431 3.8644L3.93642 3.15791C3.71903 2.78143 3.6613 2.34287 3.77384 1.92295C3.88634 1.50303 4.15563 1.15209 4.53212 0.934749C5.30931 0.486038 6.30657 0.753303 6.75528 1.53045L7.25427 2.39471C8.41825 2.14627 9.63876 2.22854 10.8055 2.64807C12.4814 3.25073 13.8458 4.47709 14.6474 6.10135C14.6506 6.10787 14.6578 6.12291 14.6688 6.14576C14.9852 6.8058 15.6297 8.09924 16.3901 9.34627C17.049 10.4267 17.5529 11.0733 17.926 11.4595C18.5413 11.2928 19.2104 11.5785 19.5029 12.1714L19.5184 12.2027C19.6793 12.5289 19.7036 12.8981 19.5868 13.2426C19.47 13.5871 19.226 13.8654 18.8999 14.0264L12.7343 17.0689C12.905 17.4083 13.0014 17.791 13.0014 18.1961C13.0014 19.5861 11.8706 20.7169 10.4806 20.7169C9.48603 20.7169 8.62466 20.1378 8.21478 19.2992L6.58044 20.1057C6.38724 20.201 6.18216 20.2462 5.98001 20.2462C5.47767 20.2462 4.99368 19.9673 4.75681 19.4873L4.74122 19.4557C4.46919 18.9045 4.6061 18.2563 5.03411 17.857C4.95587 17.2869 4.73825 16.4083 4.23208 15.0602C3.61122 13.4068 2.88474 11.924 2.87751 11.9094C2.07602 10.2852 1.93267 8.45623 2.47392 6.75951V6.75951ZM6.06915 1.92651C5.95759 1.7333 5.77751 1.5951 5.562 1.53737C5.49005 1.51807 5.417 1.50854 5.34446 1.50854C5.19974 1.50854 5.05688 1.54651 4.92821 1.6208C4.73501 1.73237 4.59681 1.91244 4.53907 2.12795C4.48134 2.34346 4.51099 2.56854 4.62251 2.76174L4.97521 3.37264C5.2229 3.2035 5.48372 3.05041 5.7572 2.91549C5.98954 2.80084 6.22673 2.70143 6.46755 2.61655L6.06915 1.92651ZM10.4806 19.9247C11.4337 19.9247 12.2092 19.1493 12.2092 18.1961C12.2092 17.9169 12.1424 17.653 12.0242 17.4194L8.92563 18.9485C9.20571 19.5256 9.79704 19.9247 10.4806 19.9247V19.9247ZM5.45169 19.1051L5.46727 19.1366C5.60618 19.4182 5.94829 19.5342 6.22989 19.3953L18.5493 13.3159C18.6857 13.2486 18.7877 13.1322 18.8365 12.9882C18.8854 12.8442 18.8752 12.6897 18.8078 12.5531L18.7924 12.5218C18.6534 12.2403 18.3113 12.1242 18.0297 12.2632L5.71036 18.3425C5.42884 18.4815 5.31278 18.8236 5.45169 19.1051ZM3.58798 11.5588C3.59532 11.5737 4.33895 13.0912 4.9736 14.7813C5.40704 15.9355 5.64903 16.7898 5.76841 17.4305L17.1669 11.8055C16.7651 11.3518 16.2867 10.6985 15.7137 9.75877C14.9352 8.48213 14.2773 7.16174 13.9543 6.4883C13.9454 6.46963 13.9395 6.45733 13.9368 6.45194C13.2266 5.0126 12.0193 3.92643 10.5374 3.39358C9.06064 2.86252 7.48751 2.94502 6.10782 3.62592C4.72813 4.30674 3.70567 5.5051 3.22872 7.00022C2.75013 8.50057 2.87774 10.1195 3.58798 11.5588V11.5588Z" fill="#121212"/>
<path d="M12.0589 6.50203C12.1465 6.50203 12.2345 6.4732 12.3078 6.41386C12.4779 6.27625 12.5043 6.02683 12.3667 5.85675C11.9956 5.39804 11.5573 5.00211 11.064 4.67996C10.8808 4.56031 10.6353 4.61187 10.5157 4.79508C10.3961 4.97828 10.4476 5.22371 10.6308 5.34332C11.0549 5.62023 11.4317 5.96062 11.7508 6.355C11.829 6.45175 11.9434 6.50203 12.0589 6.50203V6.50203Z" fill="#121212"/>
<path d="M9.6412 4.8281C9.80781 4.8281 9.96281 4.72217 10.0175 4.55525C10.0857 4.34736 9.97238 4.12361 9.76449 4.05545C9.61398 4.00611 9.45921 3.96283 9.30449 3.92678C9.09144 3.87709 8.87843 4.00955 8.82882 4.22263C8.77917 4.43568 8.91163 4.64865 9.12468 4.69834C9.25687 4.72916 9.38913 4.76611 9.51769 4.80826C9.55871 4.8217 9.60031 4.8281 9.6412 4.8281V4.8281Z" fill="#121212"/>
</g>
<defs>
<clipPath id="clip0_102_128">
<rect width="20" height="19.9155" fill="white" transform="matrix(-1 0 0 1 20 0.716919)"/>
</clipPath>
</defs>
</svg>
