<svg width="28" height="28" viewBox="0 0 28 28" fill="none" xmlns="http://www.w3.org/2000/svg">
<g clip-path="url(#clip0_102_83)" filter="url(#filter0_d_102_83)">
<path d="M4.00409 11.2701C4.02964 10.2108 4.13624 9.22085 4.32088 8.32769C4.42399 7.82884 5.20118 7.98872 5.09791 8.48833C4.92283 9.33502 4.82175 10.2774 4.79731 11.2892C4.75863 12.8931 5.00809 14.2854 5.53872 15.4275C6.38684 17.2529 8.04541 18.4555 10.0058 18.8142C10.016 18.8161 10.9484 18.9797 12.2456 18.7133C11.7116 18.3678 11.0517 17.8432 10.4542 17.0904C8.59488 14.7478 8.57592 11.6405 9.36081 8.87772C9.85553 7.13627 10.5589 5.41264 11.6465 3.95256C9.95852 3.09566 8.75984 3.42257 8.70874 3.43721C8.69728 3.44082 8.69287 3.44189 8.68113 3.44443C8.62499 3.45736 7.29389 3.78149 6.19606 5.56844C5.92723 6.00591 5.25386 5.58625 5.51999 5.15306C6.75564 3.14184 8.31427 2.71647 8.49538 2.67299C8.6707 2.62443 10.1722 2.25864 12.1567 3.32398C13.1358 2.21683 14.4826 1.20188 15.9955 1.04533C17.1219 0.928808 18.2482 1.35747 19.1759 1.97018C20.031 2.53497 20.8072 3.32398 21.4827 4.31525C22.3147 5.53602 22.9967 7.07105 23.51 8.87764C24.2949 11.6404 24.2759 14.7476 22.4166 17.0903C21.2161 18.6028 19.7638 19.1943 19.5869 19.2623C17.6511 20.135 15.2259 20.0149 13.2802 19.2609C12.1998 19.6074 11.0048 19.7907 9.87727 19.5972C7.68915 19.3441 5.74847 17.7419 4.83131 15.7877C4.24046 14.5289 3.96215 13.0089 4.00409 11.2701V11.2701ZM19.2658 18.5369C19.2755 18.5323 19.2861 18.5279 19.2962 18.5241C19.3101 18.5189 20.7055 17.9866 21.8182 16.5678C23.4948 14.4299 23.4571 11.5952 22.7467 9.09461C21.6555 5.25367 19.9931 3.4793 18.7907 2.66716C17.791 1.99196 16.8616 1.81776 16.4818 1.81776C16.4711 1.81776 16.4608 1.81788 16.4509 1.81816C16.4406 1.81859 16.4302 1.81859 16.4199 1.81816C16.3782 1.81677 12.2135 1.73976 10.1241 9.09457C9.41365 11.5953 9.376 14.4299 11.0525 16.5677C12.1652 17.9866 13.5606 18.5189 13.5738 18.5238C15.328 19.1694 17.5218 19.3445 19.2658 18.5369V18.5369Z" fill="#121212"/>
<path d="M12.0981 12.9984C12.0981 10.6066 14.044 8.66074 16.4358 8.66074C17.106 8.66074 17.7487 8.80955 18.3461 9.10301C18.8033 9.3276 18.4542 10.04 17.9963 9.81518C17.5086 9.57563 16.9836 9.45415 16.4358 9.45415C14.4815 9.45415 12.8916 11.0441 12.8916 12.9984C12.8916 14.9527 14.4815 16.5426 16.4358 16.5426C18.3901 16.5426 19.98 14.9527 19.98 12.9984C19.98 12.6416 19.9273 12.2897 19.8232 11.9524C19.6731 11.4656 20.4311 11.2311 20.5815 11.7185C20.7088 12.1316 20.7734 12.5622 20.7734 12.9984C20.7734 15.3902 18.8276 17.3361 16.4358 17.3361C14.044 17.3361 12.0981 15.3902 12.0981 12.9984Z" fill="#121212"/>
<path d="M19.7948 10.6286C19.7306 10.7852 19.5678 10.8846 19.3995 10.8726C19.2272 10.8603 19.0797 10.732 19.0419 10.5638C18.9641 10.2179 19.3661 9.94872 19.6568 10.1529C19.8067 10.2581 19.8653 10.4593 19.7948 10.6286Z" fill="#121212"/>
<path d="M5.52041 6.63462C5.71457 6.92558 5.4461 7.31965 5.10361 7.24145C4.93892 7.20384 4.81217 7.06221 4.79582 6.89348C4.77987 6.72864 4.87128 6.56701 5.02109 6.49612C5.19565 6.41352 5.4142 6.47223 5.52041 6.63462V6.63462Z" fill="#121212"/>
</g>
<defs>
<filter id="filter0_d_102_83" x="0" y="0.449417" width="28" height="27.9155" filterUnits="userSpaceOnUse" color-interpolation-filters="sRGB">
<feFlood flood-opacity="0" result="BackgroundImageFix"/>
<feColorMatrix in="SourceAlpha" type="matrix" values="0 0 0 0 0 0 0 0 0 0 0 0 0 0 0 0 0 0 127 0" result="hardAlpha"/>
<feOffset dy="4"/>
<feGaussianBlur stdDeviation="2"/>
<feComposite in2="hardAlpha" operator="out"/>
<feColorMatrix type="matrix" values="0 0 0 0 0 0 0 0 0 0 0 0 0 0 0 0 0 0 0.25 0"/>
<feBlend mode="normal" in2="BackgroundImageFix" result="effect1_dropShadow_102_83"/>
<feBlend mode="normal" in="SourceGraphic" in2="effect1_dropShadow_102_83" result="shape"/>
</filter>
<clipPath id="clip0_102_83">
<rect width="20" height="19.9155" fill="white" transform="matrix(-1 0 0 1 24 0.449417)"/>
</clipPath>
</defs>
</svg>
