<svg width="20" height="21" viewBox="0 0 20 21" fill="none" xmlns="http://www.w3.org/2000/svg">
<g clip-path="url(#clip0_102_150)">
<path d="M10 20.9282C12.2597 20.9282 14.3842 20.0482 15.9821 18.4503C17.58 16.8524 18.46 14.728 18.46 12.4682C18.46 10.9101 18.0389 9.39096 17.2423 8.07498C17.1515 7.92502 16.9721 7.85385 16.8031 7.90104C16.6343 7.94815 16.5175 8.10201 16.5175 8.27729C16.5175 9.13037 15.8204 10.122 14.9216 10.122C14.0386 10.122 13.3202 9.40358 13.3202 8.52053C13.3202 8.2178 13.4026 7.9251 13.5585 7.67416C13.8454 7.22065 13.9979 6.69026 13.9979 6.14299C13.9979 4.6083 12.7985 3.34955 11.267 3.27627C10.6542 3.23932 10.1745 2.72932 10.1745 2.11432C10.1745 1.8999 10.2298 1.69416 10.3343 1.51932C10.4121 1.38932 10.4077 1.22611 10.323 1.10049C10.2384 0.974826 10.0887 0.909552 9.93906 0.932833C9.2552 1.0392 8.6277 1.38736 8.17223 1.91322C7.71129 2.44533 7.45742 3.1258 7.45742 3.82928C7.45742 4.42869 7.63856 5.00697 7.98117 5.50166C7.98266 5.50377 7.9841 5.50584 7.98559 5.50791C8.20289 5.80873 8.3177 6.16256 8.3177 6.53108C8.3177 7.49135 7.53649 8.27256 6.57621 8.27256C5.63465 8.27256 4.86977 7.53791 4.835 6.60014C4.8293 6.4467 4.73426 6.31088 4.59207 6.25287C4.44992 6.19498 4.28699 6.22565 4.17563 6.33139C3.35207 7.11354 2.70395 8.03565 2.24938 9.07205C1.77872 10.1451 1.54008 11.2878 1.54008 12.4683C1.54008 14.1112 2.01156 15.7043 2.90356 17.0756C3.02125 17.2563 3.26317 17.3076 3.44403 17.19C3.62485 17.0724 3.67606 16.8304 3.55848 16.6496C2.7491 15.4054 2.32133 13.9596 2.32133 12.4683C2.32133 10.5847 2.9875 8.81783 4.21137 7.42057C4.5691 8.38018 5.49172 9.05381 6.57621 9.05381C7.96723 9.05381 9.09895 7.92209 9.09895 6.53108C9.09895 5.99869 8.93383 5.48799 8.62141 5.05393C8.37098 4.69123 8.23863 4.26783 8.23863 3.82928C8.23863 3.01611 8.70832 2.28475 9.4025 1.92139C9.39633 1.98518 9.39324 2.04955 9.39324 2.11432C9.39324 3.14326 10.1972 3.99627 11.2235 4.05631C11.225 4.05643 11.2264 4.05651 11.2279 4.05658C12.3431 4.10897 13.2166 5.02545 13.2166 6.14299C13.2166 6.54217 13.106 6.92819 12.8966 7.2592C12.6621 7.63674 12.539 8.07197 12.539 8.52053C12.539 9.8344 13.6079 10.9033 14.9217 10.9033C15.557 10.9033 16.1618 10.6041 16.6248 10.061C16.7962 9.85987 16.9383 9.63514 17.0472 9.39748C17.4624 10.3582 17.6788 11.403 17.6788 12.4683C17.6787 16.7023 14.2341 20.1469 10 20.1469C8.56367 20.1469 7.16324 19.748 5.95008 18.9934C5.76692 18.8794 5.52598 18.9356 5.41207 19.1187C5.29813 19.3019 5.35426 19.5428 5.53742 19.6567C6.87453 20.4885 8.4177 20.9282 10 20.9282Z" fill="#121212"/>
<path d="M11.0812 17.2531C11.1385 17.2531 11.1966 17.2405 11.2516 17.2138C11.4457 17.1196 11.5266 16.8858 11.4323 16.6918L9.28296 12.2658C9.18874 12.0717 8.95492 11.9908 8.76097 12.0851C8.56691 12.1793 8.48597 12.413 8.58023 12.6071L10.7296 17.0331C10.7971 17.1722 10.9364 17.2531 11.0812 17.2531Z" fill="#121212"/>
<path d="M11.9061 13.9999C12.5954 13.9999 13.1562 13.4391 13.1562 12.7497C13.1562 12.0603 12.5954 11.4995 11.9061 11.4995C11.2167 11.4995 10.6558 12.0603 10.6558 12.7497C10.6558 13.4391 11.2166 13.9999 11.9061 13.9999ZM11.9061 12.2807C12.1646 12.2807 12.375 12.4911 12.375 12.7497C12.375 13.0083 12.1646 13.2187 11.9061 13.2187C11.6475 13.2187 11.4371 13.0083 11.4371 12.7497C11.4371 12.4911 11.6475 12.2807 11.9061 12.2807Z" fill="#121212"/>
<path d="M8.094 17.8121C8.78338 17.8121 9.34424 17.2513 9.34424 16.5619C9.34424 15.8725 8.78342 15.3116 8.094 15.3116C7.40466 15.3116 6.8438 15.8725 6.8438 16.5619C6.8438 17.2513 7.40466 17.8121 8.094 17.8121ZM8.094 16.0929C8.3526 16.0929 8.56299 16.3033 8.56299 16.5619C8.56299 16.8205 8.3526 17.0309 8.094 17.0309C7.83545 17.0309 7.62506 16.8205 7.62506 16.5619C7.62506 16.3033 7.83545 16.0929 8.094 16.0929Z" fill="#121212"/>
<path d="M4.36084 18.6309C4.46397 18.6309 4.56475 18.5891 4.63736 18.5165C4.71002 18.4438 4.75146 18.343 4.75146 18.2403C4.75146 18.1372 4.71002 18.0368 4.63736 17.9641C4.56475 17.8915 4.46397 17.8497 4.36084 17.8497C4.25807 17.8497 4.15772 17.8915 4.08502 17.9641C4.01197 18.0368 3.97022 18.1375 3.97022 18.2403C3.97022 18.343 4.01197 18.4438 4.08502 18.5165C4.15768 18.5891 4.25807 18.6309 4.36084 18.6309Z" fill="#121212"/>
</g>
<defs>
<clipPath id="clip0_102_150">
<rect width="20" height="19.9155" fill="white" transform="matrix(-1 0 0 1 20 0.928177)"/>
</clipPath>
</defs>
</svg>
