<svg width="20" height="21" viewBox="0 0 20 21" fill="none" xmlns="http://www.w3.org/2000/svg">
<g clip-path="url(#clip0_102_116)">
<path d="M2.95957 6.048L5.51511 2.83605V1.41004C5.51511 0.763876 6.04081 0.238174 6.68698 0.238174H13.3121C13.9583 0.238174 14.484 0.763876 14.484 1.41004V2.83609L17.0396 6.04807C17.7206 6.90401 18.2026 7.62483 18.2026 9.11209V18.7027C18.2026 19.5494 17.5438 20.2382 16.7339 20.2382H3.26527C2.45543 20.2382 1.79653 19.5494 1.79653 18.7027V9.11209C1.79653 7.62483 2.2786 6.90401 2.95957 6.048V6.048ZM2.57778 9.50271V17.1131H9.98415V9.50271H2.57778ZM2.59188 8.72146H9.99622C10.0744 7.49147 10.5287 6.82541 11.1472 6.04803L13.2834 3.36316H6.09413L3.57093 6.53444C3.02195 7.22444 2.6648 7.74467 2.59188 8.72146ZM13.7028 1.41004C13.7028 1.19466 13.5275 1.01942 13.3121 1.01942H6.68702C6.47163 1.01942 6.29639 1.19466 6.29639 1.41004V2.58192H13.7028V1.41004ZM16.4282 6.53448L14.0934 3.59996L11.7586 6.53448C11.2096 7.22444 10.8525 7.74467 10.7795 8.72146H12.2506C12.4663 8.72146 12.6413 8.89638 12.6413 9.11209C12.6413 9.32779 12.4663 9.50271 12.2506 9.50271H10.7654V17.1131H17.4214V9.50271H15.7662C15.5505 9.50271 15.3756 9.32779 15.3756 9.11209C15.3756 8.89638 15.5505 8.72146 15.7662 8.72146H17.4073C17.3344 7.74467 16.9772 7.22444 16.4282 6.53448V6.53448ZM17.4214 18.7026V17.8944H10.7654V19.4569H16.7339C17.113 19.4569 17.4214 19.1186 17.4214 18.7026ZM3.26527 19.4569H9.98415V17.8944H2.57778V18.7026C2.57778 19.1186 2.88621 19.4569 3.26527 19.4569V19.4569Z" fill="#121212"/>
<path d="M6.2815 15.2923C5.18732 15.2923 4.29712 14.4021 4.29712 13.3079C4.29712 12.2137 5.18732 11.3235 6.2815 11.3235C7.37567 11.3235 8.26587 12.2137 8.26587 13.3079C8.26587 14.4021 7.37564 15.2923 6.2815 15.2923ZM6.2815 12.1048C5.6181 12.1048 5.07837 12.6444 5.07837 13.3079C5.07837 13.9713 5.61806 14.511 6.2815 14.511C6.94493 14.511 7.48462 13.9713 7.48462 13.3079C7.48462 12.6444 6.94489 12.1048 6.2815 12.1048Z" fill="#121212"/>
<path d="M14.0081 9.50278C13.7924 9.50278 13.6175 9.32786 13.6175 9.11215C13.6175 8.89645 13.7924 8.72153 14.0081 8.72153H14.0085C14.2242 8.72153 14.3989 8.89645 14.3989 9.11215C14.3989 9.32786 14.2239 9.50278 14.0081 9.50278V9.50278Z" fill="#121212"/>
</g>
<defs>
<clipPath id="clip0_102_116">
<rect width="20" height="19.9155" fill="white" transform="matrix(-1 0 0 1 20 0.238174)"/>
</clipPath>
</defs>
</svg>
