<svg width="20" height="20" viewBox="0 0 20 20" fill="none" xmlns="http://www.w3.org/2000/svg">
<g clip-path="url(#clip0_102_164)">
<path d="M0.3125 11.3173C0.3125 9.95663 0.972187 8.65725 2.07719 7.84163C2.3025 7.67475 2.58187 7.58319 2.86344 7.58319C3.21594 7.58319 3.54625 7.72413 3.78875 7.96382C3.83406 7.926 3.87531 7.88444 3.92219 7.8485C4.09562 7.716 4.30375 7.63725 4.5175 7.60475L4.37969 6.08944C4.37656 6.05319 4.375 6.01663 4.375 5.98007C4.375 5.31319 4.9175 4.77069 5.58437 4.77069H5.66563C6.3325 4.77069 6.875 5.31319 6.875 5.98007C6.875 6.01663 6.87344 6.05319 6.87 6.08975L6.73156 7.61163C6.92969 7.64913 7.12125 7.72569 7.28312 7.84632C7.33906 7.88819 7.38875 7.93632 7.4425 7.98038C7.47031 7.95163 7.49969 7.92475 7.53 7.89882C7.51219 7.79475 7.5 7.68944 7.5 7.58319C7.5 7.18632 7.62375 6.80663 7.85313 6.48944C7.62375 6.17225 7.5 5.79288 7.5 5.39569C7.5 4.32569 8.40531 3.4585 9.48406 3.52413C9.68469 2.94913 10.1525 2.51569 10.7275 2.3485C11.1081 1.87382 11.6819 1.61038 12.2966 1.64913C12.5553 0.907566 13.2559 0.395691 14.0625 0.395691C14.7391 0.395691 15.355 0.757566 15.6869 1.33413C16.5144 1.36194 17.2297 1.946 17.4347 2.74163C18.4022 3.10257 19.0625 4.03913 19.0625 5.08319C19.0625 5.92038 18.6506 6.68569 17.9691 7.14819C18.0719 7.38288 18.125 7.63663 18.125 7.89569C18.125 8.45819 17.875 8.981 17.4459 9.33507C17.4819 9.48007 17.5 9.626 17.5 9.77069C17.5 10.7282 16.7781 11.5207 15.85 11.6323L15.1588 13.5682C15.5128 13.8291 15.8144 14.1557 16.0466 14.5307L17.6837 14.1669C17.7459 14.1526 17.81 14.1457 17.8744 14.1457C18.3572 14.1457 18.75 14.5385 18.75 15.0213V15.1451C18.75 15.2326 18.7331 15.3157 18.7091 15.3957H18.75C19.2669 15.3957 19.6875 15.8163 19.6875 16.3332C19.6875 16.8501 19.2669 17.2707 18.75 17.2707H18.7091C18.7331 17.3507 18.75 17.4338 18.75 17.5213V17.6451C18.75 18.1279 18.3572 18.5207 17.8744 18.5207C17.81 18.5207 17.7459 18.5138 17.6844 18.4998L16.0466 18.1357C15.44 19.1151 14.3591 19.7707 13.125 19.7707H13.0516C12.8778 19.7707 12.7019 19.7573 12.5291 19.7307L1.81312 18.0823C0.943749 17.9482 0.3125 17.2129 0.3125 16.3332C0.3125 15.6298 0.719687 15.0244 1.32594 14.7391C0.678438 13.9657 0.3125 12.9844 0.3125 11.9741V11.3173ZM4.30219 8.34507C3.36937 9.05819 2.8125 10.1941 2.8125 11.3844V12.5323C2.8125 13.1729 2.97219 13.8001 3.27312 14.3598L5.77906 13.9741C5.88219 13.5207 5.9375 13.0576 5.9375 12.5926V11.3238C5.9375 11.0088 5.90594 10.6941 5.85812 10.3823C5.78156 10.3888 5.70531 10.3957 5.625 10.3957C4.73406 10.3957 4.0625 9.99257 4.0625 9.45819C4.0625 9.16319 4.26656 8.90132 4.62 8.72944L4.57406 8.22382C4.47656 8.2435 4.38281 8.28288 4.30219 8.34507V8.34507ZM5.66563 5.39569H5.58406C5.26187 5.39569 4.99969 5.65788 4.99969 5.98007C4.99969 5.99788 5.00031 6.01569 5.00219 6.03319L5.28594 9.15413L5.0475 9.23069C4.77375 9.31819 4.6875 9.4335 4.6875 9.45819C4.6875 9.536 5.02 9.77069 5.625 9.77069C6.23 9.77069 6.5625 9.536 6.5625 9.45819C6.5625 9.4335 6.47625 9.31819 6.2025 9.23038L5.96406 9.15382L6.24781 6.03319C6.24938 6.01538 6.25 5.99757 6.25 5.98007C6.25 5.65788 5.98781 5.39569 5.66563 5.39569V5.39569ZM6.675 8.23413L6.63 8.72944C6.98344 8.90132 7.1875 9.16319 7.1875 9.45819C7.1875 9.80257 6.90656 10.0904 6.47 10.2529C6.52594 10.6076 6.5625 10.9657 6.5625 11.3238V12.5926C6.5625 13.0219 6.52125 13.4507 6.44125 13.8723L8.28344 13.5888C8.38375 13.2454 8.4375 12.8913 8.4375 12.5319V11.3841C8.4375 10.1957 7.86625 9.06007 6.90938 8.34694C6.83969 8.29507 6.75938 8.25694 6.675 8.23413V8.23413ZM10.0522 13.3166C10.2219 12.8873 10.3125 12.4376 10.3125 11.9741V11.3169C10.3125 10.1538 9.7475 9.04257 8.80156 8.34382C8.68281 8.25632 8.53531 8.20819 8.38656 8.20819C8.19781 8.20819 8.02406 8.28413 7.89688 8.41132C8.63375 9.21882 9.0625 10.2794 9.0625 11.3844V12.5323C9.0625 12.8544 9.02406 13.1732 8.95437 13.4857L10.0522 13.3166ZM10.0228 3.92725L9.96594 4.24882L9.64719 4.17788C9.55031 4.15632 9.46125 4.14569 9.375 4.14569C8.68562 4.14569 8.125 4.70632 8.125 5.39569C8.125 5.72413 8.2525 6.03475 8.48375 6.27038L8.69875 6.48944L8.48375 6.7085C8.2525 6.94413 8.125 7.25475 8.125 7.58319C8.125 7.59257 8.12688 7.60194 8.12688 7.61163C8.21156 7.59475 8.29781 7.58319 8.38656 7.58319C8.66813 7.58319 8.9475 7.67475 9.17281 7.84132C9.74156 8.261 10.1894 8.81007 10.4931 9.4285C10.6116 9.05975 10.7359 8.70663 10.8641 8.37132C10.575 6.84444 9.50281 5.96069 9.49188 5.95163L9.6875 5.70819L9.88281 5.46413C9.92625 5.49882 10.7716 6.18913 11.2463 7.43444C11.8966 5.94132 12.5103 4.97538 12.5497 4.91413L13.0756 5.25225C13.0672 5.26507 12.5906 6.01475 12.0359 7.20819C12.9706 6.85632 14.0328 6.9535 14.0938 6.95975L14.0316 7.58163C13.5616 7.53444 12.2303 7.55725 11.6084 8.19194C11.3894 8.73038 11.1734 9.32069 10.9828 9.95319C11.9328 9.466 13.0663 9.45819 13.125 9.45819V10.0832C13.1103 10.0832 11.7191 10.0926 10.8956 10.7473C10.9212 10.9354 10.9375 11.1254 10.9375 11.3173V11.9744C10.9375 12.3966 10.8725 12.8094 10.7519 13.2094L12.5291 12.936C12.6228 12.9216 12.7175 12.9119 12.8125 12.9051C13.5019 12.9051 14.0625 12.3401 14.0625 11.646C14.0625 11.5004 14.0334 11.351 13.9766 11.2013L13.8853 10.9623L14.1019 10.8254C14.4684 10.5935 14.6875 10.1994 14.6875 9.77069C14.6875 9.52475 14.6153 9.28632 14.4788 9.08069L14.2841 8.78819L14.5972 8.62913C15.2313 8.30663 15.625 7.66663 15.625 6.95819C15.625 6.12663 15.0662 5.386 14.2659 5.15694L14.0719 5.10132L14.0428 4.90163C13.9538 4.29257 13.4247 3.83319 12.8125 3.83319C12.8009 3.83319 12.7897 3.83569 12.7784 3.83725C12.7566 3.84038 12.7344 3.84319 12.7122 3.84475L12.4881 3.86288L12.4 3.656C12.2028 3.19413 11.7516 2.89569 11.25 2.89569C10.6444 2.89569 10.1284 3.32944 10.0228 3.92725V3.92725ZM15.4047 11.0207H15.625C16.3144 11.0207 16.875 10.4601 16.875 9.77069C16.875 9.62475 16.8459 9.47538 16.7891 9.32632L16.6975 9.08725L16.9141 8.95038C17.2809 8.7185 17.5 8.32444 17.5 7.89569C17.5 7.64975 17.4278 7.41132 17.2912 7.20569L17.0966 6.91319L17.4097 6.75413C18.0438 6.43163 18.4375 5.79163 18.4375 5.08319C18.4375 4.25163 17.8788 3.511 17.0788 3.28194L16.8847 3.22632L16.8556 3.02663C16.7662 2.41757 16.2372 1.95819 15.625 1.95819C15.6131 1.95819 15.6016 1.96069 15.59 1.96225C15.5687 1.96507 15.5475 1.96788 15.5256 1.96975L15.3006 1.9885L15.2122 1.78069C15.0153 1.31913 14.5641 1.02069 14.0625 1.02069C13.4569 1.02069 12.9409 1.45444 12.8353 2.05225L12.7784 2.37382L12.4597 2.30288C12.3628 2.28132 12.2737 2.27069 12.1875 2.27069C12.0437 2.27069 11.9072 2.30225 11.7766 2.34788C12.2359 2.48225 12.6316 2.78725 12.8744 3.20913C13.7019 3.23694 14.4172 3.821 14.6222 4.61663C15.5897 4.97757 16.25 5.91413 16.25 6.95819C16.25 7.79538 15.8381 8.56069 15.1566 9.02319C15.2594 9.25788 15.3125 9.51163 15.3125 9.77069C15.3125 10.3332 15.0625 10.856 14.6334 11.2104C14.6694 11.3554 14.6875 11.501 14.6875 11.6457C14.6875 12.1948 14.4513 12.6882 14.0772 13.0326C14.2628 13.0863 14.4413 13.156 14.6125 13.2388L15.4047 11.0207ZM18.125 15.1451V15.0213C18.125 14.8644 17.9731 14.7435 17.8197 14.7766L16.3325 15.1073C16.3687 15.2016 16.4012 15.2976 16.4291 15.3957H17.8744C18.0125 15.3957 18.125 15.2832 18.125 15.1451V15.1451ZM19.0625 16.3332C19.0625 16.161 18.9222 16.0207 18.75 16.0207H17.8744H16.5469C16.5559 16.1238 16.5625 16.2276 16.5625 16.3332C16.5625 16.4388 16.5559 16.5426 16.5466 16.6457H17.8744H18.75C18.9222 16.6457 19.0625 16.5054 19.0625 16.3332V16.3332ZM17.8203 17.8898C17.9684 17.9216 18.125 17.8016 18.125 17.6451V17.5213C18.125 17.3832 18.0125 17.2707 17.8744 17.2707H16.4294C16.4016 17.3688 16.3688 17.4648 16.3328 17.5591L17.8203 17.8898ZM0.9375 16.3332C0.9375 16.9023 1.34562 17.3779 1.90781 17.4644L12.6234 19.1129C12.7653 19.1348 12.9094 19.1457 13.0516 19.1457H13.125C14.6756 19.1457 15.9375 17.8838 15.9375 16.3332C15.9375 14.7826 14.6756 13.5207 13.125 13.5207H13.0516C12.9094 13.5207 12.7653 13.5316 12.6237 13.5532L1.90812 15.2016C1.34562 15.2885 0.9375 15.7641 0.9375 16.3332V16.3332ZM0.9375 11.9741C0.9375 12.9354 1.32656 13.8654 2.00344 14.5548L2.62437 14.4591C2.33906 13.8598 2.1875 13.2026 2.1875 12.5319V11.3841C2.1875 10.2735 2.61063 9.20757 3.3375 8.39882C3.21125 8.27975 3.04375 8.20819 2.86344 8.20819C2.71437 8.20819 2.56719 8.25632 2.44844 8.34444C1.5025 9.04257 0.9375 10.1541 0.9375 11.3173V11.9741Z" fill="#121212"/>
<path d="M13.4375 14.7707H12.8125V17.8957H13.4375V14.7707Z" fill="#121212"/>
<path d="M10.9375 14.7707H10.3125V17.8957H10.9375V14.7707Z" fill="#121212"/>
<path d="M8.4375 14.7707H7.8125V17.8957H8.4375V14.7707Z" fill="#121212"/>
<path d="M5.9375 15.3957H5.3125V17.2707H5.9375V15.3957Z" fill="#121212"/>
<path d="M3.4375 15.7082H2.8125V16.9582H3.4375V15.7082Z" fill="#121212"/>
</g>
<defs>
<clipPath id="clip0_102_164">
<rect width="20" height="19.9155" fill="white" transform="matrix(-1 0 0 1 20 0.0831909)"/>
</clipPath>
</defs>
</svg>
